<?xml version="1.0" encoding="UTF-8" standalone="no"?>
<svg
   xmlns:dc="http://purl.org/dc/elements/1.1/"
   xmlns:cc="http://creativecommons.org/ns#"
   xmlns:rdf="http://www.w3.org/1999/02/22-rdf-syntax-ns#"
   xmlns:svg="http://www.w3.org/2000/svg"
   xmlns="http://www.w3.org/2000/svg"
   viewBox="0 0 6666.6665 6666.6665"
   height="5555.6665"
   width="7777.6665"
   xml:space="preserve"
   id="svg2"
   version="1.1"><metadata
     id="metadata8"><rdf:RDF><cc:Work
         rdf:about=""><dc:format>image/svg+xml</dc:format><dc:type
           rdf:resource="http://purl.org/dc/dcmitype/StillImage" /></cc:Work></rdf:RDF></metadata><defs
     id="defs6" /><g
     transform="matrix(1.3333333,0,0,-1.3333333,0,5200.6667)"
     id="g10"><g
       transform="scale(0.1)"
       id="g12"><g
         transform="scale(3.06748)"
         id="g14"><path
           id="path16"
           style="fill:#b3e6f3;fill-opacity:-1;fill-rule:nonzero;stroke:none"
           d="M 16300,0 H 0 V 16300 H 16300 V 0" /></g><g
         transform="scale(2.37013)"
         id="g18"><path
           id="path20"
           style="fill:#2f425d;fill-opacity:1;fill-rule:nonzero;stroke:none"
           d="m 6144.39,15174.4 c 0,0 28.78,1125.6 1285.8,1125.6 l 54.21,-3078.7 c 0,0 -579.5,-1414.1 -1732.56,-1002.3 0,0 392.55,2214.2 392.55,2955.4" /></g><g
         transform="scale(2.37013)"
         id="g22"><path
           id="path24"
           style="fill:#2f425d;fill-opacity:1;fill-rule:nonzero;stroke:none"
           d="m 8738.18,15174.4 c 0,0 -63.97,1125.6 -1313.65,1125.6 l -26.37,-3078.7 c 0,0 504.62,-1297.8 1657.64,-886 0,0 -317.62,2097.9 -317.62,2839.1" /></g><g
         transform="scale(1.93859)"
         id="g26"><path
           id="path28"
           style="fill:#cdaea8;fill-opacity:1;fill-rule:nonzero;stroke:none"
           d="m 9546.74,16300 h -977.77 v -167.6 h -4.75 c 0,0 -0.05,0 -0.05,-0.1 -75.78,-168 -205.41,-306.1 -366.66,-393.4 819.67,120.6 1220.68,399.9 1349.23,508 v 53.1" /></g><g
         transform="scale(1.93227)"
         id="g30"><path
           id="path32"
           style="fill:#e2bfb8;fill-opacity:1;fill-rule:nonzero;stroke:none"
           d="m 10704.4,15640.7 -400.4,5.9 v 53.4 c -319.63,15.9 -592.26,210.1 -720.61,485.2 h -5.43 v 5.9 108.9 c -128.97,-108.4 -531.29,-388.7 -1353.64,-509.7 -107.24,-58 -228.28,-93.8 -357.2,-100.2 v -7.2 l -476.02,7.1 151.27,-543.3 -44.81,-341.6 145.63,-89.7 1479.09,-2715.5 1399.62,2592.4 285.6,173.5 84,347.3 -187.1,527.6" /></g><g
         transform="scale(2.27685)"
         id="g34"><path
           id="path36"
           style="fill:#cdaea8;fill-opacity:1;fill-rule:nonzero;stroke:none"
           d="m 7689.78,16299.5 c -585.24,-19 -1074.24,-374.1 -1074.24,-1129.6 0,-766.3 478.77,-1389.1 1074.24,-1406.1 v 1.6 c 13.44,-1.5 23.02,-2.5 25.04,-2.5 V 16300 c -8.35,-0.2 -16.69,-0.2 -25.04,-0.5" /></g><g
         transform="scale(2.27691)"
         id="g38"><path
           id="path40"
           style="fill:#e2bfb8;fill-opacity:1;fill-rule:nonzero;stroke:none"
           d="m 7739.55,16300 c -8.34,0 -16.6,-0.3 -24.94,-0.4 v -2537 0 c 607.14,0 1099.25,629.9 1099.25,1406.9 0,776.9 -467.17,1130.5 -1074.31,1130.5" /></g><g
         transform="scale(2.14636)"
         id="g42"><path
           id="path44"
           style="fill:#e2bfb8;fill-opacity:1;fill-rule:nonzero;stroke:none"
           d="m 9234.63,15998.5 c -25.11,-172 23.11,-321.6 107.58,-334 84.47,-12.5 173.27,116.9 198.29,289 25.02,172.1 -23.11,321.7 -107.58,334.1 -84.38,12.4 -173.22,-117 -198.29,-289.1" /></g><g
         transform="scale(2.14818)"
         id="g46"><path
           id="path48"
           style="fill:#cdaea8;fill-opacity:1;fill-rule:nonzero;stroke:none"
           d="m 7092.97,15998.9 c 16.34,-169.7 -33.19,-313.3 -110.65,-320.8 -77.37,-7.6 -153.44,123.9 -169.73,293.5 -16.38,169.8 33.14,313.4 110.61,321 77.36,7.4 153.47,-124 169.77,-293.7" /></g><g
         transform="scale(2.09416)"
         id="g50"><path
           id="path52"
           style="fill:#c1911b;fill-opacity:1;fill-rule:nonzero;stroke:none"
           d="m 9623.1,16242.7 c 0,-31.6 -25.65,-57.3 -57.31,-57.3 -31.66,0 -57.3,25.7 -57.3,57.3 0,31.6 25.64,57.3 57.3,57.3 31.66,0 57.31,-25.7 57.31,-57.3" /></g><g
         transform="scale(2.09208)"
         id="g54"><path
           id="path56"
           style="fill:#a9262e;fill-opacity:1;fill-rule:nonzero;stroke:none"
           d="m 9616.41,16258.9 c 0,-22.8 -18.4,-41.1 -41.1,-41.1 -22.66,0 -41.11,18.3 -41.11,41.1 0,22.7 18.45,41.1 41.11,41.1 22.7,0 41.1,-18.4 41.1,-41.1" /></g><g
         transform="scale(2.09758)"
         id="g58"><path
           id="path60"
           style="fill:#c1911b;fill-opacity:1;fill-rule:nonzero;stroke:none"
           d="m 7238.29,16242.8 c 0,-31.6 -25.56,-57.2 -57.17,-57.2 -31.61,0 -57.21,25.6 -57.21,57.2 0,31.6 25.6,57.2 57.21,57.2 31.61,0 57.17,-25.6 57.17,-57.2" /></g><g
         transform="scale(2.09549)"
         id="g62"><path
           id="path64"
           style="fill:#a9262e;fill-opacity:1;fill-rule:nonzero;stroke:none"
           d="m 7229.33,16259 c 0,-22.6 -18.42,-41 -41.04,-41 -22.67,0 -41.04,18.4 -41.04,41 0,22.7 18.37,41 41.04,41 22.62,0 41.04,-18.3 41.04,-41" /></g><g
         transform="scale(2.32169)"
         id="g66"><path
           id="path68"
           style="fill:#2f425d;fill-opacity:1;fill-rule:nonzero;stroke:none"
           d="m 6651.8,15829.4 c 0,0 -132.32,-651.9 1127.46,-656.9 1259.77,-4.8 1063.66,-416.6 1083.3,-730.3 0,0 205.84,500 -112.76,1009.8 -318.65,509.8 -710.78,848 -1137.23,818.6 -426.46,-29.4 -754.88,-19.6 -980.41,-426.4" /></g><g
         transform="scale(1.88479)"
         id="g70"><path
           id="path72"
           style="fill:#6a3b77;fill-opacity:1;fill-rule:nonzero;stroke:none"
           d="m 9311.14,10712.1 20.91,4829.8 c 0,0 -569.88,332.2 -760.89,730.2 0,0 -239.23,27.9 -557.25,-27.9 C 7385.51,16133.9 6602.87,15697 6597.78,14073 l -10.66,-96.3 -28.55,-259.8 -99.8,-905.1 c 0,0 0.06,-497.2 82.93,-876.1 82.93,-378.8 449.92,-2651.78 449.92,-2770.25 0,-118.37 -71.15,-722.16 165.69,-1065.48 236.8,-343.28 532.74,-580.07 580.07,-449.82 47.38,130.21 -165.75,378.83 -213.08,473.53 -47.37,94.66 -165.74,390.66 -59.2,343.28 106.58,-47.33 59.26,-236.74 106.58,-295.95 47.33,-59.16 106.54,-47.27 118.37,130.25 11.89,177.53 -23.66,556.41 -189.46,710.32 -165.7,153.87 -224.91,568.19 -213.02,899.68 11.78,331.54 82.82,1894.24 -11.89,2355.94 -53.69,262.1 10.77,810 80.91,1248 14.28,89.5 28.87,174.3 42.66,251.2 4.25,23.5 8.38,45.9 12.47,67.9 -4.3,-219.9 21.28,-460.7 216.1,-782.2 263.69,-435.1 96.83,-2340 96.83,-2340 h 1586.49" /></g><g
         transform="scale(1.88481)"
         id="g74"><path
           id="path76"
           style="fill:#7c428c;fill-opacity:1;fill-rule:nonzero;stroke:none"
           d="m 12164.9,12811.6 -94.1,853.9 -33.6,503.6 -12.4,-6.2 c -33.2,1550.1 -798.4,1973 -1415,2081.2 -317.9,55.9 -557.3,28.2 -557.3,28.2 -310.72,-648.1 -718.35,-732.2 -718.35,-732.2 l -24.78,-4826.7 H 10899 c 0,0 -166.8,1927.2 96.9,2362.3 194.3,320.6 220.2,548.2 216.2,762.5 4.2,-22.9 8.4,-48.3 12.9,-72.8 l 8.4,2.1 -8.4,-4.2 c 14.5,-80.9 29.8,-170.6 44.8,-265.1 69.1,-435.1 131.3,-972.4 78.2,-1231.1 -94.7,-461.8 -23.7,-2024.4 -11.8,-2355.97 11.8,-331.49 -47.4,-745.8 -213.1,-899.67 -165.8,-153.91 -201.3,-532.78 -189.4,-710.3 11.8,-177.53 71,-189.42 118.3,-130.26 47.3,59.21 0,248.62 106.6,295.95 106.5,47.38 -11.9,-248.62 -59.2,-343.27 -47.4,-94.71 -260.4,-343.33 -213.1,-473.53 47.4,-130.25 343.4,106.54 580.1,449.81 236.9,343.32 165.7,947.1 165.7,1065.47 0,118.47 367,2391.47 449.9,2770.27 82.8,378.8 82.9,876 82.9,876" /></g><g
         transform="scale(1.21656)"
         id="g78"><path
           id="path80"
           style="fill:#2b4241;fill-opacity:1;fill-rule:nonzero;stroke:none"
           d="m 3714.14,16036.1 -393.31,263.9 c 0,0 -681.22,-603.5 -681.22,-1059.4 0,-455.8 1222.54,46.5 1222.54,46.5 l -148.01,749" /></g><g
         transform="scale(2.88037)"
         id="g82"><path
           id="path84"
           style="fill:#395f60;fill-opacity:1;fill-rule:nonzero;stroke:none"
           d="M 1392.18,1419.96 V 808.924 H 16300 V 1419.96 H 1392.18" /></g><g
         transform="scale(1.89001)"
         id="g86"><path
           id="path88"
           style="fill:#ffffff;fill-opacity:1;fill-rule:nonzero;stroke:none"
           d="m 10041.7,16300 -732.26,-808.6 152.7,-440.3 646.96,1179.3 -67.4,69.6" /></g><g
         transform="scale(1.89001)"
         id="g90"><path
           id="path92"
           style="fill:#ffffff;fill-opacity:1;fill-rule:nonzero;stroke:none"
           d="m 8573.47,16300 732.27,-808.6 -152.75,-440.3 -646.93,1179.3 67.41,69.6" /></g><g
         transform="scale(1.87974)"
         id="g94"><path
           id="path96"
           style="fill:#95a627;fill-opacity:1;fill-rule:nonzero;stroke:none"
           d="m 7979.71,16287.2 575.51,-1625.6 h -213.65 l -579.5,1586.5 c 0,0 100.98,51.9 217.64,39.1" /></g><g
         transform="scale(1.87974)"
         id="g98"><path
           id="path100"
           style="fill:#a7c131;fill-opacity:1;fill-rule:nonzero;stroke:none"
           d="m 10673,16287.2 -575.5,-1625.6 h 213.6 l 579.5,1586.5 c 0,0 -100.9,51.9 -217.6,39.1" /></g><g
         transform="scale(1.6908)"
         id="g102"><path
           id="path104"
           style="fill:#95a627;fill-opacity:1;fill-rule:nonzero;stroke:none"
           d="m 9240.97,16300 h -8.64 l 4.97,-22.8 c -33.06,-200.8 -287.38,-1665.4 -694.53,-1814.7 0,0 313.35,-1119.7 -138.45,-3331.7 h 1951.78 38.2 20.9 V 16300 H 9240.97" /></g><g
         transform="scale(1.6908)"
         id="g106"><path
           id="path108"
           style="fill:#a7c131;fill-opacity:1;fill-rule:nonzero;stroke:none"
           d="m 12207.6,14462.5 c -407.2,149.3 -661.5,1613.9 -694.6,1814.7 l 5,22.8 h -8.6 -1094.2 V 11130.8 H 12346 c -451.8,2212 -138.4,3331.7 -138.4,3331.7" /></g><g
         transform="scale(2.87853)"
         id="g110"><path
           id="path112"
           style="fill:#2b4241;fill-opacity:1;fill-rule:nonzero;stroke:none"
           d="M 16300,6305.31 H 1403.5 v 583.63 H 16300 v -583.63" /></g><g
         transform="scale(2.61594)"
         id="g114"><path
           id="path116"
           style="fill:#9e1b21;fill-opacity:1;fill-rule:nonzero;stroke:none"
           d="m 16124.3,8001.32 c 0,0 36.6,97.28 175.7,73.93 -41.7,26.26 -102.2,40.86 -189.5,48.32 -5.9,-4.36 -11.6,-9.29 -16.9,-14.95 0,0 -135.1,26.49 -152,-108.11 49.2,33.91 120.6,61.4 182.7,0.81" /></g><g
         transform="scale(2.64847)"
         id="g118"><path
           id="path120"
           style="fill:#9f1b22;fill-opacity:1;fill-rule:nonzero;stroke:none"
           d="m 16300,8007.65 c -35.5,39.99 -101.1,82.01 -202.1,29.15 0,0 -112.5,41.01 -185.3,-12.99 108.6,-9.28 167.7,-30.05 199.2,-71.09 16.4,41.23 62.2,99.49 188.2,54.93" /></g><g
         transform="scale(2.66406)"
         id="g122"><path
           id="path124"
           style="fill:#ae1d24;fill-opacity:1;fill-rule:nonzero;stroke:none"
           d="m 16114,7606 c -20.8,-285.88 81.2,-164.56 154.1,-43.62 28.4,105.22 31.9,229.24 -31.2,349.62 0,0 -10.4,24.02 -32.3,48.8 -87.6,30.93 -136.1,11.97 -163,-16.26 33,-8.07 92.7,-60.09 72.4,-338.54" /></g><g
         transform="scale(2.65885)"
         id="g126"><path
           id="path128"
           style="fill:#9f1b22;fill-opacity:1;fill-rule:nonzero;stroke:none"
           d="m 16145.6,7620.9 c 20.3,278.99 -39.5,331.12 -72.6,339.21 -11.6,-12.19 -19.2,-26.07 -24.1,-38.44 45.3,-59.16 33.1,-160.6 28.8,-330.93 -3.3,-135.14 -67.9,-243.83 -119.2,-289.42 20.8,10.72 39.2,30.81 53.9,60.71 0,0 88,-105.58 150.8,-42.73 34.1,34.11 103,132.69 136.8,257.9 -73,-121.19 -175.3,-242.74 -154.4,43.7" /></g><g
         transform="scale(2.62482)"
         id="g130"><path
           id="path132"
           style="fill:#c71e29;fill-opacity:1;fill-rule:nonzero;stroke:none"
           d="m 16064.7,7676.42 c 168.7,-22.4 220.9,159.1 235.3,313.13 -13.1,24.04 -30.9,43.2 -55.1,58.4 -138.6,23.28 -175.1,-73.68 -175.1,-73.68 -61.9,60.39 -133.1,33 -182.1,-0.8 -0.5,-3.84 -0.9,-7.81 -1.2,-11.92 0,0 -17.1,-25.22 -25.6,-74.48 13.7,-94.56 63,-191.98 203.8,-210.65" /></g><g
         transform="scale(2.63054)"
         id="g134"><path
           id="path136"
           style="fill:#bb1e26;fill-opacity:1;fill-rule:nonzero;stroke:none"
           d="m 16264.5,7972.17 c -14.3,-153.7 -66.5,-334.8 -234.7,-312.45 -140.6,18.63 -189.8,115.83 -203.4,210.19 -10,-58.13 -8,-149.86 48.4,-273.71 80.7,-177.3 182.9,-253.68 255.5,-216.31 51.7,46.08 162.8,158.49 166.2,295.08 3.5,141.64 1.6,235.5 -32,297.2" /></g><g
         transform="scale(2.623)"
         id="g138"><path
           id="path140"
           style="fill:#428132;fill-opacity:1;fill-rule:nonzero;stroke:none"
           d="m 16060.5,8025.66 c 0,0 81.6,50.93 79,114.64 -2.5,63.7 -63.7,109.53 -63.7,109.53 0,0 12.8,84.06 53.5,43.31 40.8,-40.76 107,-48.38 94.3,-206.33 l 76.4,-17.84 -33.1,-48.42 c 0,0 -137.6,10.18 -165.6,-25.47 -28,-35.68 -40.8,30.58 -40.8,30.58" /></g><g
         transform="scale(1.62501)"
         id="g142"><path
           id="path144"
           style="fill:#b9e6c7;fill-opacity:1;fill-rule:nonzero;stroke:none"
           d="m 14366,14695.9 313.3,-1522.7 1620.7,333.5 -191.4,930.4 c -322,203.7 -831.4,243.6 -1210.1,177 -234.7,-41.2 -414.8,16.5 -532.5,81.8" /></g><g
         transform="scale(1.60592)"
         id="g146"><path
           id="path148"
           style="fill:#dff0a4;fill-opacity:1;fill-rule:nonzero;stroke:none"
           d="m 14418.2,15446.9 118.5,-576.3 c 119.1,-66.1 301.3,-124.5 538.8,-82.8 383.2,67.4 898.7,27 1224.5,-179.1 l -241.9,1175.6 -1639.9,-337.4" /></g><g
         transform="scale(1.6123)"
         id="g150"><path
           id="path152"
           style="fill:#fdf8e7;fill-opacity:1;fill-rule:nonzero;stroke:none"
           d="m 16270.7,14061.6 c 29.3,-142.4 -291.2,-328.6 -715.8,-416 -424.7,-87.4 -792.7,-42.8 -822,99.6 -29.3,142.4 291.2,328.7 715.8,416 424.7,87.4 792.7,42.8 822,-99.6" /></g><g
         transform="scale(1.59778)"
         id="g154"><path
           id="path156"
           style="fill:#fdf8e7;fill-opacity:1;fill-rule:nonzero;stroke:none"
           d="m 16278.8,14160.7 c 21.2,-103.1 -246.4,-245.2 -597.7,-317.5 -351.4,-72.3 -653.4,-47.4 -674.6,55.7 -21.1,103 246.5,245.1 597.8,317.4 351.3,72.3 653.3,47.4 674.5,-55.6" /></g><g
         transform="scale(1.60031)"
         id="g158"><path
           id="path160"
           style="fill:#d4d4d2;fill-opacity:1;fill-rule:nonzero;stroke:none"
           d="m 15583.6,14174.4 c -362.8,-74.7 -597.6,-214.6 -581.3,-293.6 16.1,-78.8 287.1,-114.7 650,-40.1 362.8,74.7 597.5,214.7 581.3,293.5 -16.2,79 -287.2,114.8 -650,40.2 z m 76.6,-372.5 c -317.3,-65.3 -669.4,-62.6 -696.9,71 -27.5,133.5 295,275.1 612.3,340.3 317.4,65.3 669.4,62.6 696.9,-71 27.5,-133.6 -294.9,-275 -612.3,-340.3" /></g><g
         transform="scale(1.57798)"
         id="g162"><path
           id="path164"
           style="fill:#f9d684;fill-opacity:1;fill-rule:nonzero;stroke:none"
           d="m 16300,14475.5 -3.2,0.6 0.2,-1 3,0.4" /></g><g
         transform="scale(1.57927)"
         id="g166"><path
           id="path168"
           style="fill:#f4a539;fill-opacity:1;fill-rule:nonzero;stroke:none"
           d="m 15278.1,14360.6 -0.9,-0.2 18,-87.5 1004.8,111.2 -16.3,79.2 -1005.6,-102.7" /></g><g
         transform="scale(1.57769)"
         id="g170"><path
           id="path172"
           style="fill:#f9d684;fill-opacity:1;fill-rule:nonzero;stroke:none"
           d="m 16052.6,14531.1 -537.5,113.8 -222.6,-270.1 1,0.2 1006.5,102.8 -0.2,1 -247.2,52.3" /></g><g
         transform="scale(1.58088)"
         id="g174"><path
           id="path176"
           style="fill:#df4a1f;fill-opacity:1;fill-rule:nonzero;stroke:none"
           d="m 15277.7,14272.5 -1,-0.2 18,-87.4 1005.3,103.7 -17.8,86.5 -1004.5,-102.6" /></g><g
         transform="scale(1.58244)"
         id="g178"><path
           id="path180"
           style="fill:#f4a539;fill-opacity:1;fill-rule:nonzero;stroke:none"
           d="m 15280.2,14172.8 -0.9,-0.2 18,-87.3 1002.7,111 -16.2,79 -1003.6,-102.5" /></g><g
         transform="scale(1.58403)"
         id="g182"><path
           id="path184"
           style="fill:#df4a1f;fill-opacity:1;fill-rule:nonzero;stroke:none"
           d="m 15281.3,14079.1 -1,-0.1 18,-87.3 1001.7,110.9 -16.2,78.9 -1002.5,-102.4" /></g><g
         transform="scale(1.50371)"
         id="g186"><path
           id="path188"
           style="fill:#df4a1f;fill-opacity:1;fill-rule:nonzero;stroke:none"
           d="m 16139.3,16017.8 c -12.5,-9.9 -39,-22.6 -74.7,-30 -82.9,-17 -156,22.5 -175.8,118.8 -18.9,92 30.6,167.1 121.7,185.9 36.6,7.5 61.3,4.4 72.4,1.2 l -2.8,-32.8 c -15.8,4.1 -37.3,5.1 -61.7,0.1 -68.9,-14.3 -105.6,-67.7 -89.7,-144.8 14.7,-72 65.7,-109.6 137.1,-94.9 23.1,4.7 45.7,14.4 59.4,24.9 l 14.1,-28.4" /></g><g
         transform="scale(1.51424)"
         id="g190"><path
           id="path192"
           style="fill:#df4a1f;fill-opacity:1;fill-rule:nonzero;stroke:none"
           d="m 16195.9,16057.5 -45.9,78.1 c -10.4,17.7 -18.3,34.2 -26.1,50.2 l -0.9,-0.2 c -0.8,-18.3 -1.8,-37 -3.8,-55.9 l -11.2,-90.2 z m -89.7,-49.1 -11.4,-98 -38.9,-8 39,312.1 45.5,9.4 159.6,-271.3 -40.3,-8.3 -50,85.4 -103.5,-21.3" /></g><g
         transform="scale(1.53736)"
         id="g194"><path
           id="path196"
           style="fill:#df4a1f;fill-opacity:1;fill-rule:nonzero;stroke:none"
           d="m 16037.9,16008.7 37.1,7.7 28.5,-138.6 1.3,0.2 c 5.4,12.7 11,24.6 16.3,35.4 l 65.6,126 46,9.5 -78.9,-143.4 146.2,-142.4 -43.9,-9 -123.7,121.7 -20.8,-37.2 22.5,-109.6 -37,-7.7 -59.2,287.4" /></g><g
         transform="scale(1.55525)"
         id="g198"><path
           id="path200"
           style="fill:#df4a1f;fill-opacity:1;fill-rule:nonzero;stroke:none"
           d="m 16260,15751 -110.4,-22.7 21,-102.5 123.1,25.4 6.3,-30.8 -159.7,-32.9 -58.5,284.1 153.5,31.6 6.3,-30.8 -116.7,-24 18.4,-89.8 110.5,22.7 6.2,-30.3" /></g><g
         transform="scale(1.70796)"
         id="g202"><path
           id="path204"
           style="fill:#d7f1ec;fill-opacity:1;fill-rule:nonzero;stroke:none"
           d="m 16300,14703.1 -877.2,144.4 -380.6,-2314.7 877.3,-144.4 380.5,2314.7" /></g><g
         transform="scale(1.7652)"
         id="g206"><path
           id="path208"
           style="fill:#b2d2c9;fill-opacity:1;fill-rule:nonzero;stroke:none"
           d="m 15931.8,11899.7 -528.5,87 368.1,2239.7 528.6,-87 -368.2,-2239.7" /></g><g
         transform="scale(1.74513)"
         id="g210"><path
           id="path212"
           style="fill:#57c6c2;fill-opacity:1;fill-rule:nonzero;stroke:none"
           d="m 15097.3,14531.5 374.3,237.6 828.4,-136.4 -344.1,-242.5 -858.6,141.3" /></g><g
         transform="scale(1.7652)"
         id="g214"><path
           id="path216"
           style="fill:#33799d;fill-opacity:1;fill-rule:nonzero;stroke:none"
           d="m 16300,14139.4 -188.3,326.8 -340.3,-239.8 528.6,-87" /></g><g
         transform="scale(1.74707)"
         id="g218"><path
           id="path220"
           style="fill:#d7f1ec;fill-opacity:1;fill-rule:nonzero;stroke:none"
           d="m 16300,14744.8 -827.5,136.2 -21.2,-128.6 827.6,-136.1 21.1,128.5" /></g><g
         transform="scale(1.64485)"
         id="g222"><path
           id="path224"
           style="fill:#57c6c2;fill-opacity:1;fill-rule:nonzero;stroke:none"
           d="m 16130.4,14955.2 c 9,-1.5 17.6,-4.3 25.6,-8.6 8.1,-4.2 15.3,-9.9 21.5,-17.2 16.3,9.4 34.2,12.4 53.4,9.3 10.5,-1.7 20.3,-5.5 29.4,-11.1 9.1,-5.7 16.8,-12.5 23,-20.7 6.2,-8.1 10.7,-17.3 13.5,-27.6 2.7,-10.4 3.2,-21 1.4,-31.8 l -18.6,-113.1 c -1.2,-7.2 -5.2,-13 -12.1,-17.4 -6.9,-4.4 -14.3,-6 -22,-4.7 -7.9,1.3 -14.2,5.3 -19.1,12.1 -4.9,6.9 -6.7,14.2 -5.4,22 l 18,109.5 c 0.9,5.7 -0.3,10.8 -3.7,15.4 -3.5,4.6 -8.1,7.4 -14.2,8.3 -5.1,0.9 -10.1,0 -15,-2.8 -4.9,-2.8 -7.9,-7.4 -9,-14 l -18,-109.5 c -1.4,-8.1 -5.4,-14.5 -12.2,-19.3 -6.8,-4.7 -14.3,-6.4 -22.4,-5.1 -7.5,1.2 -13.8,4.9 -18.9,11.2 -5.3,6.3 -7.1,13.1 -5.9,20.7 l 18.3,111.7 c 0.8,6.1 -0.7,11.3 -4.3,15.8 -3.6,4.4 -7.9,7.1 -13,7.9 -5.7,0.9 -10.9,-0.2 -15.6,-3.4 -4.8,-3.3 -7.7,-7.9 -9,-13.8 l -18.4,-111.8 c -1.9,-7.1 -5.9,-12.8 -12.3,-17.2 -6.5,-4.3 -13.6,-5.9 -21.4,-4.6 -4.2,0.7 -8,2.1 -11.3,4.2 -3.4,2.1 -6.2,4.7 -8.5,7.9 -2.2,3.1 -3.9,6.6 -4.9,10.5 -1.1,3.9 -1.1,7.7 -0.2,11.6 l 18.2,110.8 c 1.8,10.6 5.5,20.2 11.3,29 5.7,8.8 12.8,16.1 21.2,21.9 8.4,5.9 17.8,10.2 28.2,12.7 10.5,2.7 21.3,3 32.4,1.2" /></g><g
         transform="scale(1.6556)"
         id="g226"><path
           id="path228"
           style="fill:#57c6c2;fill-opacity:1;fill-rule:nonzero;stroke:none"
           d="m 16264,14817.5 c 7.8,-1.3 13.8,-5.2 18.1,-11.8 4.3,-6.5 6.1,-13.9 5.3,-21.9 l -26.1,-158.5 c -1.3,-8.1 -4.9,-14.4 -10.9,-18.9 -6,-4.6 -13.3,-6.4 -22.1,-5.7 -7.7,1.4 -13.9,4.8 -18.5,10.5 -4.6,5.7 -6.7,12.9 -6.5,21.7 l 26.6,162.1 c 2,7.7 6.1,13.6 12.7,17.7 6.4,4.2 13.6,5.7 21.4,4.8 z m 11.3,68.5 c 7.7,-1.3 13.9,-5.4 18.5,-12.1 4.5,-6.7 6.2,-13.9 4.9,-21.7 -1.2,-7.8 -5.2,-14 -11.6,-19 -6.5,-4.9 -13.6,-6.7 -21.4,-5.4 -8.6,1.7 -15.3,5.6 -19.9,11.8 -4.7,6.1 -6.2,13.9 -4.6,23.5 1.5,7.7 5.7,13.8 12.4,18.1 6.7,4.4 13.9,6 21.7,4.8" /></g><g
         transform="scale(1.66584)"
         id="g230"><path
           id="path232"
           style="fill:#57c6c2;fill-opacity:1;fill-rule:nonzero;stroke:none"
           d="m 16261.7,14781.1 c 8,-1.3 14.3,-5.2 18.8,-11.7 4.6,-6.6 6.5,-14 5.8,-22.4 l -29,-175.8 c -1,-5.9 0.1,-11.3 3.3,-16.1 3.1,-4.8 7.7,-7.7 13.6,-8.6 7.8,-1.3 14.1,-5.1 19,-11.4 4.9,-6.3 6.8,-13.4 5.8,-21.5 -1.2,-7.1 -4.6,-13 -10.5,-17.7 -5.7,-4.7 -12.6,-7 -20.5,-6.9 l -6.2,1 c -10.4,1.7 -19.9,5.5 -28.3,11.3 -8.5,5.8 -15.7,12.9 -21.4,21.2 -5.9,8.2 -10,17.4 -12.4,27.6 -2.5,10.1 -2.8,20.4 -1.2,30.8 l 29.3,177.5 c 2.1,7.2 6.2,13.1 12.5,17.6 6.2,4.5 13.4,6.1 21.4,5.1" /></g><g
         transform="scale(1.68885)"
         id="g234"><path
           id="path236"
           style="fill:#57c6c2;fill-opacity:1;fill-rule:nonzero;stroke:none"
           d="m 16267.5,14307 c 4.8,-6.8 6.7,-14.2 5.3,-22.3 -1.3,-8 -5.4,-14.5 -12.2,-19.4 -6.7,-4.3 -14.1,-6 -22,-5.1 -8,0.8 -14.6,4.8 -19.7,12 l -55.4,76.7 -7.4,-44.8 c -1.3,-7.5 -5.3,-13.9 -12.1,-18.9 -6.9,-5 -14.2,-6.9 -22.1,-5.6 -7.6,1.2 -14,5.2 -19.3,11.9 -5.2,6.8 -7.1,14.2 -5.7,22.4 l 36.4,221.6 c 1.3,7.6 5.3,14 12.2,19 6.8,5 14.3,6.9 22.5,5.6 8.2,-1.4 14.7,-5.4 19.5,-12 4.7,-6.7 6.5,-14.1 5.1,-22.3 l -18.1,-110.2 77.2,55.4 c 6.7,4.9 14.1,6.6 22,5.2 7.8,-1.5 14.4,-5.5 19.6,-12.1 4.9,-6.8 6.7,-14.2 5.4,-22.2 -1.3,-8.1 -5.5,-14.5 -12.3,-19.4 l -67.4,-48.5 48.5,-67" /></g><g
         transform="scale(1.71085)"
         id="g238"><path
           id="path240"
           style="fill:#d7f1ec;fill-opacity:1;fill-rule:nonzero;stroke:none"
           d="m 16296.4,14798 c -3.6,-21.6 -24.1,-36.2 -45.7,-32.6 -21.6,3.7 -36.2,24.1 -32.5,45.8 3.6,21.5 24.1,36.1 45.6,32.5 21.6,-3.7 36.2,-24.1 32.6,-45.7" /></g><g
         transform="scale(1.48282)"
         id="g242"><path
           id="path244"
           style="fill:#f9f9f9;fill-opacity:1;fill-rule:nonzero;stroke:none"
           d="m 15211.3,13284.8 1088.7,221.6 -169.3,831.5 -1088.6,-221.6 169.2,-831.5" /></g><g
         transform="scale(1.46742)"
         id="g246"><path
           id="path248"
           style="fill:#d2da0f;fill-opacity:1;fill-rule:nonzero;stroke:none"
           d="m 16072,15593.9 c -2.5,12.1 -3.8,18.1 -6.4,30.2 l -1101.9,-224.3 c 2.3,-12.1 3.4,-18.2 5.9,-30.3 l 5.2,1.1 225.1,-1106.2 1100.1,223.9 -225.2,1106.2 -2.8,-0.6" /></g><g
         transform="scale(1.51268)"
         id="g250"><path
           id="path252"
           style="fill:#f9f9f9;fill-opacity:1;fill-rule:nonzero;stroke:none"
           d="m 15097.4,16122.9 c -50.7,51.7 -82.4,114.6 -105.6,177.1 l -84.7,-17.3 c -14.3,-39.5 -49.3,-65.7 -93.5,-74.7 -44.2,-8.9 -86.6,1.4 -115.3,32.2 l -82,-16.6 c 2.7,-66.7 -2.4,-139.1 -28,-204.3 -64.6,-164.9 -181.3,-504 -72.3,-1080.3 l 1068.9,217.6 c -124.9,573.1 -363.6,839.8 -487.5,966.3" /></g><g
         transform="scale(1.52591)"
         id="g254"><path
           id="path256"
           style="fill:#d2da0f;fill-opacity:1;fill-rule:nonzero;stroke:none"
           d="m 14685.2,16067.5 c 43.7,8.9 78.4,34.8 92.6,74 l 84,17.1 c -0.2,0 -2.8,-0.4 -3,0.8 l -19.8,97.5 -71.9,-14.6 c -26,37.1 -75.9,57.7 -127.2,47.3 -51.3,-10.5 -89.1,-49 -98.5,-93.3 l -68.6,-13.9 18.3,-89.8 c 0.7,-3.8 -1,-9.6 -1.6,-9.7 l 81.4,16.5 c 28.4,-30.5 70.4,-40.8 114.3,-31.9" /></g><g
         transform="scale(1.57568)"
         id="g258"><path
           id="path260"
           style="fill:#d2da0f;fill-opacity:1;fill-rule:nonzero;stroke:none"
           d="m 14267.2,16250.1 11.3,2.3 c 12.7,2.5 20.9,12.1 18.4,24.7 l -0.5,2 c -2.5,12.6 -14.4,20.9 -27,18.4 l -388.9,-79.2 c -12.6,-2.6 -20.1,-14.8 -17.5,-27.4 l 0.4,-2 c 2.5,-12.7 13.7,-18.2 26.3,-15.6 l 22.8,4.6 6.9,-33.8 354.7,72.2 -6.9,33.8" /></g><g
         transform="scale(1.56759)"
         id="g262"><path
           id="path264"
           style="fill:#f9f9f9;fill-opacity:1;fill-rule:nonzero;stroke:none"
           d="m 13991.2,16227.5 96.8,-475.3 66.8,13.5 c 9.2,43.2 46,80.6 95.9,90.8 49.9,10.2 98.5,-9.9 123.8,-46 l 70,14.2 -96.7,475.3 -356.6,-72.5" /></g><g
         transform="scale(2.92891)"
         id="g266"><path
           id="path268"
           style="fill:#2b4241;fill-opacity:1;fill-rule:nonzero;stroke:none"
           d="m 15853.7,6660.8 163.3,109.63 c 0,0 283,-250.67 283,-440.03 0,-189.35 -507.8,19.29 -507.8,19.29 l 61.5,311.11" /></g><g
         transform="scale(1.75658)"
         id="g270"><path
           id="path272"
           style="fill:#e27379;fill-opacity:1;fill-rule:nonzero;stroke:none"
           d="m 11961.3,13057.7 255.2,-1930 3716.6,-31.9 366.9,2009.8 -4338.7,-47.9" /></g><g
         transform="scale(2.88037)"
         id="g274"><path
           id="path276"
           style="fill:#4c8786;fill-opacity:1;fill-rule:nonzero;stroke:none"
           d="M 16300,6242.26 H 1392.18 V 3648.84 H 16300 v 2593.42" /></g><g
         transform="scale(2.88037)"
         id="g278"><path
           id="path280"
           style="fill:#529292;fill-opacity:1;fill-rule:nonzero;stroke:none"
           d="M 1392.18,3648.84 V 1419.96 H 16300 V 3648.84 H 1392.18" /></g><g
         transform="scale(2.92883)"
         id="g282"><path
           id="path284"
           style="fill:#395f60;fill-opacity:1;fill-rule:nonzero;stroke:none"
           d="m 16300,6329.75 c 0,-105.36 -85.4,-190.79 -190.8,-190.79 H 1286.8 c -105.38,0 -190.8,85.43 -190.8,190.79 v 0.82 c 0,105.37 85.42,190.8 190.8,190.8 h 14822.4 c 105.4,0 190.8,-85.43 190.8,-190.8 v -0.82" /></g><g
         transform="scale(1.08869)"
         id="g286"><path
           id="path288"
           style="fill:#e35265;fill-opacity:1;fill-rule:nonzero;stroke:none"
           d="M 12583.6,12786 14164.5,7504.45 H 16300 L 14603.1,12786 h -2019.5" /></g><path
         id="path290"
         style="fill:#e35265;fill-opacity:1;fill-rule:nonzero;stroke:none"
         d="M 9049.56,13920 10770.7,8170 h 2324.9 l -1847.4,5750 H 9049.56" /><g
         transform="scale(1.41411)"
         id="g292"><path
           id="path294"
           style="fill:#c3ebe5;fill-opacity:1;fill-rule:nonzero;stroke:none"
           d="m 16300,5159 c 0,-295.02 -239.2,-534.18 -534.2,-534.18 h -2156.3 c -295,0 -534.1,239.16 -534.1,534.18 v 5133.4 c 0,295 239.1,534.2 534.1,534.2 h 2156.3 c 295,0 534.2,-239.2 534.2,-534.2 V 5159" /></g><g
         transform="scale(1.33783)"
         id="g296"><path
           id="path298"
           style="fill:#ffffff;fill-opacity:1;fill-rule:nonzero;stroke:none"
           d="m 16300,10375.8 c 0,-364.1 -295.1,-659.23 -659.2,-659.23 -364,0 -659.1,295.13 -659.1,659.23 0,364 295.1,659.2 659.1,659.2 364.1,0 659.2,-295.2 659.2,-659.2" /></g><g
         transform="scale(1.33783)"
         id="g300"><path
           id="path302"
           style="fill:#ffffff;fill-opacity:1;fill-rule:nonzero;stroke:none"
           d="m 16300,6145.03 c 0,-364.02 -295.1,-659.2 -659.2,-659.2 -364,0 -659.1,295.18 -659.1,659.2 0,364.03 295.1,659.21 659.1,659.21 364.1,0 659.2,-295.18 659.2,-659.21" /></g><g
         transform="scale(1.30368)"
         id="g304"><path
           id="path306"
           style="fill:#ffffff;fill-opacity:1;fill-rule:nonzero;stroke:none"
           d="m 6981.89,6673.41 c -1003.57,0 -1820.04,818.22 -1820.04,1821.77 0,1003.54 816.47,1821.72 1820.04,1821.72 H 16300 v 652 H 6981.89 c -1365.52,0 -2476.44,-1108.21 -2476.44,-2473.72 0,-1365.52 1110.92,-2473.77 2476.44,-2473.77 H 16300 v 652 H 6981.89" /></g><g
         transform="scale(1.76916)"
         id="g308"><path
           id="path310"
           style="fill:#e53735;fill-opacity:1;fill-rule:nonzero;stroke:none"
           d="m 15435.1,11127.3 v 357.9 l 391.7,-1 -58,-356.9 z m -3256.9,366.2 456.6,-1.2 v -365 h -409.4 z m 456.6,692.1 v -581.7 l -471.1,1.2 -74.8,580.5 z m 672.3,0 v -583.5 l -560.8,1.4 v 582.1 z m 682,0 v -585.1 l -570.5,1.4 v 583.7 z m 652.4,0 v -586.9 l -540.8,1.4 v 585.5 z m 111.5,-698.6 570.5,-1.5 v -358.2 H 14753 Z m -652.3,1.6 540.8,-1.4 v -359.9 h -540.8 z m -793.6,-361.3 h -560.8 v 364.7 l 560.8,-1.5 z m 111.5,363 570.5,-1.4 v -361.6 h -570.5 z m 1904.9,695.3 V 11597 l -570.5,1.6 v 587 z m 617.3,0 -95.9,-589.9 -409.8,1.1 v 588.8 z m 257.1,887.6 c -60,9.4 -118,-31.6 -128,-92.3 l -111,-683.7 h -523.8 v 606.5 h -111.6 v -606.5 H 14753 v 626.3 h -111.5 v -626.3 h -540.8 v 616.4 h -111.6 v -616.4 h -570.5 v 616.4 h -111.5 v -616.4 h -560.8 v 626.3 h -111.5 v -626.3 h -560.3 l -83.8,650.4 c -7.8,61.1 -61.8,104.6 -125,96.4 -61.1,-7.8 -104.2,-63.8 -96.3,-124.9 l 247,-1917.7 c 7.2,-55.6 54.6,-97.2 110.8,-97.2 h 3736.5 c 54.8,0 101.4,39.6 110.2,93.6 l 316.3,1947.3 c 9.8,60.9 -31.5,118.2 -92.3,128.1" /></g><g
         transform="scale(1.78896)"
         id="g312"><path
           id="path314"
           style="fill:#d33531;fill-opacity:1;fill-rule:nonzero;stroke:none"
           d="m 16300,12744.9 h -4885.5 v 391.2 H 16300 v -391.2" /></g><g
         transform="scale(1.56324)"
         id="g316"><path
           id="path318"
           style="fill:#335265;fill-opacity:1;fill-rule:nonzero;stroke:none"
           d="m 14275,14760.4 c -49.6,0 -99.2,19.4 -136.5,58.1 -72.5,75.3 -70.1,195.2 5.2,267.7 l 1185.9,1141.2 c 75.4,72.6 195.1,70.2 267.8,-5.2 72.6,-75.4 70.2,-195.2 -5.1,-267.8 l -1185.9,-1141.1 c -36.7,-35.4 -84.1,-52.9 -131.4,-52.9" /></g><g
         transform="scale(1.68299)"
         id="g320"><path
           id="path322"
           style="fill:#335265;fill-opacity:1;fill-rule:nonzero;stroke:none"
           d="m 16106.5,13699.7 c -45.7,0 -91.2,17.6 -125.6,52.7 l -1091.1,1111.8 c -67.9,69.4 -67,180.8 2.4,248.9 69.4,67.9 180.9,66.8 248.7,-2.3 L 16232,13998.9 c 68,-69.4 67,-180.8 -2.3,-248.9 -34.2,-33.6 -78.8,-50.3 -123.2,-50.3" /></g><g
         transform="scale(2.56278)"
         id="g324"><path
           id="path326"
           style="fill:#fbcd23;fill-opacity:1;fill-rule:nonzero;stroke:none"
           d="m 16080.5,8007.44 c 15.8,88.81 67.4,140.28 135.8,184.45 23.1,14.94 47.9,27.35 83.7,47.6 -20.3,20.49 -38.9,39.22 -56.6,57.05 -95.7,-112.34 -434.5,-475.73 -720.8,-354.03 -234.9,99.85 -418.3,354.54 -502.1,555.53 -19.3,-19.2 -34.9,-37.19 -39.9,-57.75 -25,-104.18 -16.8,-208.83 46.9,-302.33 126.4,-185.62 294.7,-317 513.2,-370.03 85.6,-20.79 182,-24.81 268.3,-8.62 134.7,25.36 245.4,101.1 271.5,248.13" /></g><g
         transform="scale(2.55388)"
         id="g328"><path
           id="path330"
           style="fill:#e8b60e;fill-opacity:1;fill-rule:nonzero;stroke:none"
           d="m 15576.7,7970.2 c 287.3,-122.13 627.3,242.53 723.3,355.26 -18.6,18.72 -36.2,36.45 -53.8,54.19 -15.1,-12.06 -23.7,-16.01 -27.9,-22.71 -110.5,-176.91 -272.6,-250.4 -478.5,-213.71 -161.6,28.78 -285.5,124.36 -401,232.98 -68.1,64.02 -134.9,129.52 -213.1,204.9 -17.5,-20.17 -36.4,-37.24 -52.8,-53.45 84.1,-201.69 268.1,-457.26 503.8,-557.46" /></g><g
         transform="scale(2.36989)"
         id="g332"><path
           id="path334"
           style="fill:#aba71f;fill-opacity:1;fill-rule:nonzero;stroke:none"
           d="m 16300,9247.31 -13.9,15.99 -69.9,-58.78 -7.9,-65.7 91.7,108.49" /></g><g
         transform="scale(2.56586)"
         id="g336"><path
           id="path338"
           style="fill:#fbcd23;fill-opacity:1;fill-rule:nonzero;stroke:none"
           d="m 16188,7937.46 c -20,87.88 7.6,155.27 53.3,222.42 15.6,22.76 33.5,43.77 58.7,76.31 -26.7,10.99 -51.1,20.97 -74.3,30.56 -44.5,-140.5 -215.4,-606.39 -526.1,-605.38 -254.9,0.82 -522.5,164.16 -677.6,316.62 -10.3,-25.14 -17.7,-47.78 -14.3,-68.63 17.4,-105.58 65.5,-198.73 160.4,-260.11 188.2,-121.83 394.2,-177.48 615.9,-141.59 86.8,14.07 177.1,47.78 250.2,96.11 114.2,75.61 186.7,188.28 153.8,333.69" /></g><g
         transform="scale(2.55417)"
         id="g340"><path
           id="path342"
           style="fill:#e8b60e;fill-opacity:1;fill-rule:nonzero;stroke:none"
           d="m 15771.5,7696.45 c 312.1,-1.02 483.8,467 528.5,608.14 -24.4,10.02 -47.5,19.54 -70.6,29.01 -9.2,-16.95 -15.6,-23.96 -16.9,-31.71 -33.2,-205.94 -153.9,-336.59 -358,-382.71 -160,-36.21 -311.3,3.8 -459.9,59 -87.6,32.58 -174.5,67.03 -275.9,106.1 -8.3,-25.37 -19.1,-48.47 -27.9,-69.76 155.7,-153.17 424.6,-317.25 680.7,-318.07" /></g><g
         transform="scale(2.36906)"
         id="g344"><path
           id="path346"
           style="fill:#aba71f;fill-opacity:1;fill-rule:nonzero;stroke:none"
           d="m 16300,8715.94 -19,9.37 -41.6,-81.34 18.2,-63.69 42.4,135.66" /></g><g
         transform="scale(2.1806)"
         id="g348"><path
           id="path350"
           style="fill:#dfdad5;fill-opacity:1;fill-rule:nonzero;stroke:none"
           d="m 16300,10707.1 c 0,-34.3 -27.2,-62.1 -60.6,-62.1 h -757.2 c -33.5,0 -60.6,27.8 -60.6,62.1 v 489.1 c 0,34.3 27.1,62 60.6,62 h 757.2 c 33.4,0 60.6,-27.7 60.6,-62 v -489.1" /></g><g
         transform="scale(2.18076)"
         id="g352"><path
           id="path354"
           style="fill:#f7f8fc;fill-opacity:1;fill-rule:nonzero;stroke:none"
           d="m 15421,11022.4 -212.4,-299.4 14.8,-31 885.8,-13.7 17.3,34.3 173.5,299.6 -879,10.2" /></g><g
         transform="scale(2.20763)"
         id="g356"><path
           id="path358"
           style="fill:#dfdad5;fill-opacity:1;fill-rule:nonzero;stroke:none"
           d="m 16101.6,10878.2 198.4,-235.6 -369.6,-60.4 171.2,296" /></g><g
         transform="scale(2.12464)"
         id="g360"><path
           id="path362"
           style="fill:#3e8db1;fill-opacity:1;fill-rule:nonzero;stroke:none"
           d="m 16291.3,11184.4 c 8.7,-43.4 -61.9,-94 -157.7,-113.1 -95.7,-19.1 -180.3,0.6 -189,44 -8.6,43.3 62,94 157.8,113 95.7,19.1 180.3,-0.6 188.9,-43.9" /></g><g
         transform="scale(2.12351)"
         id="g364"><path
           id="path366"
           style="fill:#3e8db1;fill-opacity:1;fill-rule:nonzero;stroke:none"
           d="m 15965.1,11271.4 -32.1,-9.5 20.5,-144.5 346.5,72.9 -20.9,142.5 -314,-61.4" /></g><g
         transform="scale(2.12202)"
         id="g368"><path
           id="path370"
           style="fill:#4ba1d5;fill-opacity:1;fill-rule:nonzero;stroke:none"
           d="m 16291.3,11339 c 8.7,-43.4 -62,-94.1 -157.9,-113.2 -95.8,-19.1 -180.5,0.6 -189.2,44 -8.7,43.4 62.1,94.1 157.9,113.2 95.9,19.1 180.6,-0.6 189.2,-44" /></g><g
         transform="scale(2.20763)"
         id="g372"><path
           id="path374"
           style="fill:#b8e8f6;fill-opacity:1;fill-rule:nonzero;stroke:none"
           d="m 16260.4,9719.58 c -35.1,2.36 -32.7,107.49 -86.5,114.47 -53.7,7.02 -30.3,-121.49 -67.7,-123.8 -37.4,-2.36 7,105.14 -58.4,105.14 -64.9,0 -10.3,-335.75 -114.3,-341.09 l 2.1,-737.63 364.4,195.82 v 889.87 c -16.2,-2.9 -4.7,-105.13 -39.6,-102.78" /></g><g
         transform="scale(2.20763)"
         id="g376"><path
           id="path378"
           style="fill:#f7f8fc;fill-opacity:1;fill-rule:nonzero;stroke:none"
           d="m 15930.3,10582.2 3.2,-1107.9 c 104,5.34 49.4,341.09 114.3,341.09 65.4,0 21,-107.5 58.4,-105.14 37.4,2.31 14,130.82 67.7,123.8 53.8,-6.98 51.4,-112.11 86.5,-114.47 34.9,-2.35 23.4,99.88 39.6,102.78 v 820.24 l -369.7,-60.4" /></g><g
         transform="scale(2.15826)"
         id="g380"><path
           id="path382"
           style="fill:#7ac5e1;fill-opacity:1;fill-rule:nonzero;stroke:none"
           d="m 16209.3,10080.5 c -26.3,19.1 -71.7,-14.4 -71.7,-14.4 0,0 -28.7,-191.12 -119.5,-181.58 -90.8,9.54 -62.1,205.58 -131.4,203.08 -69.4,-2.3 -110,-145.72 -110,-207.85 0,-62.14 -4.8,-195.99 -64.5,-195.99 -59.8,0 -64.5,54.99 -59.8,131.45 4.8,76.49 -31,193.59 -81.2,181.62 -50.2,-11.95 -2.4,-207.9 -95.6,-207.9 -93.2,0 -23.9,303.47 -107.6,329.77 -0.5,0.2 -0.9,0.3 -1.4,0.5 V 9049.82 l 933.4,-113.33 -2.3,754.5 c -0.8,-0.05 -1.5,-0.05 -2.4,-0.05 -109.9,0 -59.7,370.46 -86,389.56" /></g><g
         transform="scale(2.15796)"
         id="g384"><path
           id="path386"
           style="fill:#ece7e6;fill-opacity:1;fill-rule:nonzero;stroke:none"
           d="m 15368.8,10836.2 v -715.6 c 0.4,-0.2 0.9,-0.3 1.4,-0.5 83.6,-26.3 14.3,-329.8 107.5,-329.8 93.3,0 45.5,195.97 95.6,207.92 50.2,11.98 86.1,-105.14 81.3,-181.65 -4.8,-76.46 0,-131.46 59.8,-131.46 59.7,0 64.5,133.87 64.5,196.01 0,62.14 40.6,205.58 110,207.98 69.3,2.4 40.6,-193.66 131.4,-203.2 90.9,-9.55 119.5,181.6 119.5,181.6 0,0 45.5,33.5 71.7,14.4 26.4,-19.1 -23.9,-389.61 86.1,-389.61 0.8,0 1.6,0 2.4,0.05 l -3.4,1133.46 -927.8,10.4" /></g><g
         transform="scale(1.99506)"
         id="g388"><path
           id="path390"
           style="fill:#f9f9f9;fill-opacity:1;fill-rule:nonzero;stroke:none"
           d="m 15557.6,9822.21 h 742.4 v 566.99 h -742.4 v -566.99" /></g><g
         transform="scale(1.99506)"
         id="g392"><path
           id="path394"
           style="fill:#da1e25;fill-opacity:1;fill-rule:nonzero;stroke:none"
           d="m 16298.1,11135.6 c -0.1,8.2 -0.1,12.2 -0.3,20.4 h -743.4 c -0.2,-8.2 -0.2,-12.2 -0.2,-20.4 h 3.4 v -746.4 h 742.4 v 746.4 h -1.9" /></g><g
         transform="scale(1.9948)"
         id="g396"><path
           id="path398"
           style="fill:#f9f9f9;fill-opacity:1;fill-rule:nonzero;stroke:none"
           d="m 16105.7,11869.3 c -26.8,41.4 -39.4,87.7 -46.4,132.6 h -58.9 c -15,-24.5 -41.9,-37.2 -72.7,-37.2 -30.7,0 -57.6,12.7 -72.6,37.2 h -57.1 c -7.2,-44.9 -20.5,-92.6 -46.4,-132.6 -65.6,-101.4 -189.7,-312 -195.2,-711.8 h 743.6 c -5.5,399.8 -128.7,610.4 -194.3,711.8" /></g><g
         transform="scale(1.96534)"
         id="g400"><path
           id="path402"
           style="fill:#da1e25;fill-opacity:1;fill-rule:nonzero;stroke:none"
           d="m 16166.5,12144.1 c 31.2,0 58.5,12.8 73.7,37.7 h 59.8 c -0.2,0 -1.9,0.1 -1.9,0.9 v 69.5 h -51.2 c -12.6,29 -43.9,50 -80.4,50 -36.5,0 -67.8,-21 -80.4,-50 h -48.9 v -64 c 0,-2.6 -1.9,-6.4 -2.3,-6.4 h 57.9 c 15.2,-24.9 42.5,-37.7 73.7,-37.7" /></g><g
         transform="scale(1.9681)"
         id="g404"><path
           id="path406"
           style="fill:#da1e25;fill-opacity:1;fill-rule:nonzero;stroke:none"
           d="m 16275.2,12607.1 h 8.3 c 9.3,0 16.5,5.5 16.5,14.8 v 1.5 c 0,9.2 -7.2,16.8 -16.5,16.8 h -285.6 c -9.3,0 -16.3,-7.6 -16.3,-16.8 v -1.5 c 0,-9.3 7,-14.8 16.3,-14.8 h 16.8 v -24.8 h 260.5 v 24.8" /></g><g
         transform="scale(1.9651)"
         id="g408"><path
           id="path410"
           style="fill:#f9f9f9;fill-opacity:1;fill-rule:nonzero;stroke:none"
           d="m 16039.1,12601.5 v -347.9 h 48.9 c 12.6,29.1 43.9,50.1 80.4,50.1 36.5,0 67.8,-21 80.4,-50.1 h 51.2 v 347.9 h -260.9" /></g><g
         transform="scale(2.30906)"
         id="g412"><path
           id="path414"
           style="fill:#17161b;fill-opacity:1;fill-rule:nonzero;stroke:none"
           d="m 16299.5,10177.7 c -4.9,306.9 -257.2,356.4 -257.2,356.4 v 715.9 h -279.2 v -715.9 c 0,0 -252.3,-49.5 -257.3,-356.4 -0.1,-0.4 -0.4,-1.5 -0.4,-1.5 v -7.2 -1682.3 c 130.3,-52.15 271,-66.22 397.3,-63.15 126.3,-3.07 267,11 397.3,63.15 v 1682.3 7.2 c 0,0 -0.3,1.1 -0.5,1.5" /></g><g
         transform="scale(2.30906)"
         id="g416"><path
           id="path418"
           style="fill:#ffffff;fill-opacity:1;fill-rule:nonzero;stroke:none"
           d="m 16300,9438.9 h -794.6 v 458.15 H 16300 V 9438.9" /></g><g
         transform="scale(2.27563)"
         id="g420"><path
           id="path422"
           style="fill:#c11844;fill-opacity:1;fill-rule:nonzero;stroke:none"
           d="m 16300,11438 h -16.4 -294.5 -16.4 v -226.1 h 16.4 v -370.4 h 294.5 v 370.4 h 16.4 v 226.1" /></g><g
         transform="scale(2.3006)"
         id="g424"><path
           id="path426"
           style="fill:#c11844;fill-opacity:1;fill-rule:nonzero;stroke:none"
           d="m 16300,9648.37 c 0,-52.55 -42.6,-95.15 -95.1,-95.15 h -490 c -52.6,0 -95.2,42.6 -95.2,95.15 v 86.94 c 0,52.55 42.6,95.15 95.2,95.15 h 490 c 52.5,0 95.1,-42.6 95.1,-95.15 v -86.94" /></g><g
         transform="scale(2.77155)"
         id="g428"><path
           id="path430"
           style="fill:#3d2431;fill-opacity:1;fill-rule:nonzero;stroke:none"
           d="m 16300,7383.57 c -14.5,25.58 -34,50.58 -57.6,74.33 -137,137.25 -410.2,-24.5 -515.8,-59.65 -105.8,-35.14 -280.7,-16.59 -280.7,-16.59 -166,3.21 -212.9,-57.59 -212.1,-127.3 111.4,-103.15 393.7,-212.12 1066.2,129.21" /></g><g
         transform="scale(2.78339)"
         id="g432"><path
           id="path434"
           style="fill:#2e1b22;fill-opacity:1;fill-rule:nonzero;stroke:none"
           d="m 15169,7223.49 c 0.9,-74.77 57,-159.77 79.6,-186.61 43.6,-51.7 476.1,-96.32 767.3,-11.35 240.8,70.27 284.1,204.85 214.7,326.61 -669.6,-339.87 -950.8,-231.37 -1061.6,-128.65" /></g><g
         transform="scale(2.63414)"
         id="g436"><path
           id="path438"
           style="fill:#72824f;fill-opacity:1;fill-rule:nonzero;stroke:none"
           d="m 15986.1,7680.7 c -70.6,-24.3 -94.7,21.14 -113.3,2.13 -19.6,-20.01 -7.6,-20.54 46.1,-54.67 53.7,-34.13 51,-63.7 83.6,-153.87 32.6,-90.16 164.6,-70 164.6,-70 -30,16.52 -53.1,97.75 -53.1,97.75 85.3,-27.75 162.4,69.74 186,103.38 -187.8,-50.72 -278.2,27.71 -313.9,75.28" /></g><g
         transform="scale(2.63533)"
         id="g440"><path
           id="path442"
           style="fill:#8e9a61;fill-opacity:1;fill-rule:nonzero;stroke:none"
           d="m 16205.1,7748.97 c 59.3,-9.94 68.9,32.75 68.9,32.75 -40,-17 -140.5,12.75 -208.2,-0.61 -67.8,-13.4 -75,-99.34 -75,-99.34 -4.1,-1.75 -8.1,-3.23 -11.9,-4.56 35.7,-47.54 125.9,-125.94 313.7,-75.24 4.8,6.83 7.4,11.08 7.4,11.08 -141.3,-15.86 -209.9,75.78 -209.9,75.78 0,0 55.7,70.12 115,60.14" /></g><g
         transform="scale(2.75845)"
         id="g444"><path
           id="path446"
           style="fill:#503145;fill-opacity:1;fill-rule:nonzero;stroke:none"
           d="m 15726,7365.65 c 0,0 205.3,21.97 389.7,115.39 184.3,93.46 109.4,-61.41 -47.4,-110.79 -156.7,-49.34 -511.1,-60.54 -342.3,-4.6" /></g><g
         transform="scale(1.56135)"
         id="g448"><path
           id="path450"
           style="fill:#dbdad8;fill-opacity:1;fill-rule:nonzero;stroke:none"
           d="M 9331.67,14557.9 H 8896.15 V 16300 h 435.52 v -1742.1" /></g><g
         transform="scale(1.62025)"
         id="g452"><path
           id="path454"
           style="fill:#f1ecf4;fill-opacity:1;fill-rule:nonzero;stroke:none"
           d="m 9850.36,15585.3 c 0,-99.6 -80.67,-180.2 -180.22,-180.2 H 7895.1 c -99.55,0 -180.22,80.6 -180.22,180.2 v 534.5 c 0,99.5 80.67,180.2 180.22,180.2 h 1775.04 c 99.55,0 180.22,-80.7 180.22,-180.2 v -534.5" /></g><g
         transform="scale(1.60982)"
         id="g456"><path
           id="path458"
           style="fill:#356fa7;fill-opacity:1;fill-rule:nonzero;stroke:none"
           d="m 9783.73,15776.5 c 0,-84.8 -68.77,-153.6 -153.62,-153.6 H 8055.14 c -84.85,0 -153.62,68.8 -153.62,153.6 v 369.9 c 0,84.8 68.77,153.6 153.62,153.6 h 1574.97 c 84.85,0 153.62,-68.8 153.62,-153.6 v -369.9" /></g><g
         transform="scale(1.54479)"
         id="g460"><path
           id="path462"
           style="fill:#dbdad8;fill-opacity:1;fill-rule:nonzero;stroke:none"
           d="m 5418.23,14827.3 c 0,-41.1 -33.33,-74.4 -74.45,-74.4 v 0 c -41.11,0 -74.44,33.3 -74.44,74.4 v 1398.3 c 0,41.1 33.33,74.4 74.44,74.4 v 0 c 41.12,0 74.45,-33.3 74.45,-74.4 v -1398.3" /></g><g
         transform="scale(1.4589)"
         id="g464"><path
           id="path466"
           style="fill:#dbdad8;fill-opacity:1;fill-rule:nonzero;stroke:none"
           d="M 6148.49,15717.4 H 5408.2 v 582.6 h 740.29 v -582.6" /></g><g
         transform="scale(1.27607)"
         id="g468"><path
           id="path470"
           style="fill:#f1ecf4;fill-opacity:1;fill-rule:nonzero;stroke:none"
           d="M 13471,14944.3 H 5783.37 V 16300 H 13471 v -1355.7" /></g><g
         transform="scale(1.38918)"
         id="g472"><path
           id="path474"
           style="fill:#dbdad8;fill-opacity:1;fill-rule:nonzero;stroke:none"
           d="m 11464,16299.8 -2623.13,-1 -2623.08,1.2 -908.44,-1327.2 h 3520.08 22.89 3520.08 l -908.4,1327" /></g><g
         transform="scale(1.47607)"
         id="g476"><path
           id="path478"
           style="fill:#f1ecf4;fill-opacity:1;fill-rule:nonzero;stroke:none"
           d="M 10785.4,15338 H 5853.37 v 962 h 4932.03 v -962" /></g><g
         transform="scale(1.46319)"
         id="g480"><path
           id="path482"
           style="fill:#356fa7;fill-opacity:1;fill-rule:nonzero;stroke:none"
           d="M 10572.8,15609.7 H 6178.28 v 690.3 h 4394.52 v -690.3" /></g><g
         transform="scale(1.59859)"
         id="g484"><path
           id="path486"
           style="fill:#f1ecf4;fill-opacity:1;fill-rule:nonzero;stroke:none"
           d="m 8189.03,15917.3 v 53.2 l 48.67,44.1 c 82.2,73.5 122.17,115.8 123.36,159.8 0,30.6 -18.58,55 -61.99,55 -32.4,0 -60.8,-16.2 -80.51,-31.3 l -24.9,63.1 c 28.4,21.5 72.44,38.8 123.36,38.8 85.14,0 132.06,-49.8 132.06,-118.1 0,-63.1 -45.8,-113.5 -100.22,-162.1 l -34.72,-29 v -1.1 h 141.88 v -72.4 h -266.99" /></g><g
         transform="scale(1.59796)"
         id="g488"><path
           id="path490"
           style="fill:#f1ecf4;fill-opacity:1;fill-rule:nonzero;stroke:none"
           d="m 8765.16,16227.6 h -146 l -8.07,-57.9 c 8.07,1.1 15.08,1.1 24.34,1.1 35.92,0 72.41,-8 99,-27.2 28.41,-19.1 45.81,-50.4 45.81,-94.4 0,-70.1 -60.27,-132.1 -161.64,-132.1 -45.75,0 -83.99,10.5 -104.83,21.5 l 15.65,66 c 16.77,-8.1 50.94,-18.5 85.11,-18.5 36.55,0 75.35,17.3 75.35,57.3 0,38.8 -30.73,62.6 -106.02,62.6 -20.84,0 -35.35,-1.2 -51,-3.5 l 24.91,197.5 h 207.39 v -72.4" /></g><g
         transform="scale(1.57093)"
         id="g492"><path
           id="path494"
           style="fill:#f1ecf4;fill-opacity:1;fill-rule:nonzero;stroke:none"
           d="m 8991.98,16245.3 c 0,31.7 21.84,54.7 53.03,54.7 31.25,0 52.45,-22.3 52.45,-54.7 0,-31.3 -21.2,-54.3 -53.02,-54.3 -30.62,0 -52.46,23 -52.46,54.3" /></g><g
         transform="scale(1.59859)"
         id="g496"><path
           id="path498"
           style="fill:#f1ecf4;fill-opacity:1;fill-rule:nonzero;stroke:none"
           d="m 8998,16003.6 c 15.64,-8.2 51.54,-23.2 87.39,-23.2 45.79,0 68.93,22 68.93,50.4 0,37 -37.03,53.8 -75.88,53.8 h -35.84 v 63.1 h 34.15 c 29.53,0.6 67.13,11.6 67.13,43.5 0,22.5 -18.52,39.3 -55.55,39.3 -30.72,0 -63.12,-13.3 -78.76,-22.5 l -17.95,63.7 c 22.58,14.4 67.74,28.3 116.41,28.3 80.45,0 125.05,-42.2 125.05,-93.8 0,-39.9 -22.58,-71.2 -68.94,-87.4 v -1.1 c 45.17,-8.2 81.64,-42.3 81.64,-91.6 0,-66.5 -58.43,-115.2 -154.01,-115.2 -48.61,0 -89.71,12.8 -111.72,26.7 l 17.95,66" /></g><g
         transform="scale(1.59859)"
         id="g500"><path
           id="path502"
           style="fill:#f1ecf4;fill-opacity:1;fill-rule:nonzero;stroke:none"
           d="m 9386.53,16104.9 c -0.56,-86.3 20.27,-127.4 54.42,-127.4 34.16,0 52.67,42.8 52.67,128.5 0,83.4 -17.95,127.4 -53.23,127.4 -32.47,0 -54.42,-41.1 -53.86,-128.5 z m 195.11,2.3 c 0,-116.4 -46.86,-196.3 -143,-196.3 -97.28,0 -140.13,87.5 -140.69,194 0,108.8 46.29,195.1 143.57,195.1 100.77,0 140.12,-89.7 140.12,-192.8" /></g><g
         transform="scale(1.37914)"
         id="g504"><path
           id="path506"
           style="fill:#f14359;fill-opacity:1;fill-rule:nonzero;stroke:none"
           d="m 7526.42,16068 h -957.11 v 232 h 957.11 v -232" /></g><g
         transform="scale(1.34356)"
         id="g508"><path
           id="path510"
           style="fill:#f14359;fill-opacity:1;fill-rule:nonzero;stroke:none"
           d="m 7480.14,16069.3 h -982.47 v 230.7 h 982.47 v -230.7" /></g><g
         transform="scale(1.30491)"
         id="g512"><path
           id="path514"
           style="fill:#f14359;fill-opacity:1;fill-rule:nonzero;stroke:none"
           d="M 7372.17,16062.4 H 6360.6 v 237.6 h 1011.57 v -237.6" /></g><g
         transform="scale(1.37914)"
         id="g516"><path
           id="path518"
           style="fill:#f14359;fill-opacity:1;fill-rule:nonzero;stroke:none"
           d="m 10223.8,16068 h 957.1 v 232 h -957.1 v -232" /></g><g
         transform="scale(1.34356)"
         id="g520"><path
           id="path522"
           style="fill:#f14359;fill-opacity:1;fill-rule:nonzero;stroke:none"
           d="m 10747.6,16069.3 h 982.4 v 230.7 h -982.4 v -230.7" /></g><g
         transform="scale(1.30491)"
         id="g524"><path
           id="path526"
           style="fill:#f14359;fill-opacity:1;fill-rule:nonzero;stroke:none"
           d="M 11395.4,16062.4 H 12407 v 237.6 h -1011.6 v -237.6" /></g><g
         transform="scale(1.37423)"
         id="g528"><path
           id="path530"
           style="fill:#f14359;fill-opacity:1;fill-rule:nonzero;stroke:none"
           d="m 8084.51,16206.8 c 0,-49 -39.73,-88.7 -88.7,-88.7 h -142.78 c -48.97,0 -88.7,39.7 -88.7,88.7 v 4.5 c 0,49 39.73,88.7 88.7,88.7 h 142.78 c 48.97,0 88.7,-39.7 88.7,-88.7 v -4.5" /></g><g
         transform="scale(1.37423)"
         id="g532"><path
           id="path534"
           style="fill:#f14359;fill-opacity:1;fill-rule:nonzero;stroke:none"
           d="m 8710.31,16206.8 c 0,-49 -39.73,-88.7 -88.7,-88.7 h -142.77 c -48.97,0 -88.71,39.7 -88.71,88.7 v 4.5 c 0,49 39.74,88.7 88.71,88.7 h 142.77 c 48.97,0 88.7,-39.7 88.7,-88.7 v -4.5" /></g><g
         transform="scale(1.37423)"
         id="g536"><path
           id="path538"
           style="fill:#f14359;fill-opacity:1;fill-rule:nonzero;stroke:none"
           d="m 9336.12,16206.8 c 0,-49 -39.73,-88.7 -88.71,-88.7 h -142.77 c -48.97,0 -88.7,39.7 -88.7,88.7 v 4.5 c 0,49 39.73,88.7 88.7,88.7 h 142.77 c 48.98,0 88.71,-39.7 88.71,-88.7 v -4.5" /></g><g
         transform="scale(1.37423)"
         id="g540"><path
           id="path542"
           style="fill:#f14359;fill-opacity:1;fill-rule:nonzero;stroke:none"
           d="m 9961.92,16206.8 c 0,-49 -39.73,-88.7 -88.7,-88.7 h -142.78 c -48.97,0 -88.7,39.7 -88.7,88.7 v 4.5 c 0,49 39.73,88.7 88.7,88.7 h 142.78 c 48.97,0 88.7,-39.7 88.7,-88.7 v -4.5" /></g><g
         transform="scale(1.33865)"
         id="g544"><path
           id="path546"
           style="fill:#f14359;fill-opacity:1;fill-rule:nonzero;stroke:none"
           d="m 8314.34,16204.3 c 0,-50.3 -40.78,-91.1 -91.06,-91.1 h -146.56 c -50.28,0 -91.06,40.8 -91.06,91.1 v 4.6 c 0,50.3 40.78,91.1 91.06,91.1 h 146.56 c 50.28,0 91.06,-40.8 91.06,-91.1 v -4.6" /></g><g
         transform="scale(1.33865)"
         id="g548"><path
           id="path550"
           style="fill:#f14359;fill-opacity:1;fill-rule:nonzero;stroke:none"
           d="m 8956.78,16204.3 c 0,-50.3 -40.78,-91.1 -91.06,-91.1 h -146.57 c -50.27,0 -91.06,40.8 -91.06,91.1 v 4.6 c 0,50.3 40.79,91.1 91.06,91.1 h 146.57 c 50.28,0 91.06,-40.8 91.06,-91.1 v -4.6" /></g><g
         transform="scale(1.33865)"
         id="g552"><path
           id="path554"
           style="fill:#f14359;fill-opacity:1;fill-rule:nonzero;stroke:none"
           d="m 9599.22,16204.3 c 0,-50.3 -40.78,-91.1 -91.06,-91.1 h -146.57 c -50.27,0 -91.06,40.8 -91.06,91.1 v 4.6 c 0,50.3 40.79,91.1 91.06,91.1 h 146.57 c 50.28,0 91.06,-40.8 91.06,-91.1 v -4.6" /></g><g
         transform="scale(1.33865)"
         id="g556"><path
           id="path558"
           style="fill:#f14359;fill-opacity:1;fill-rule:nonzero;stroke:none"
           d="m 10241.7,16204.3 c 0,-50.3 -40.8,-91.1 -91.1,-91.1 H 10004 c -50.24,0 -91.03,40.8 -91.03,91.1 v 4.6 c 0,50.3 40.79,91.1 91.03,91.1 h 146.6 c 50.3,0 91.1,-40.8 91.1,-91.1 v -4.6" /></g><g
         transform="scale(1.30184)"
         id="g560"><path
           id="path562"
           style="fill:#f14359;fill-opacity:1;fill-rule:nonzero;stroke:none"
           d="m 8564.8,16201.6 c 0,-51.7 -41.94,-93.6 -93.64,-93.6 h -150.71 c -51.69,0 -93.64,41.9 -93.64,93.6 v 4.8 c 0,51.7 41.95,93.6 93.64,93.6 h 150.71 c 51.7,0 93.64,-41.9 93.64,-93.6 v -4.8" /></g><g
         transform="scale(1.30184)"
         id="g564"><path
           id="path566"
           style="fill:#f14359;fill-opacity:1;fill-rule:nonzero;stroke:none"
           d="m 9233.08,16201.6 c 0,-51.7 -41.94,-93.6 -93.63,-93.6 h -150.72 c -51.69,0 -93.63,41.9 -93.63,93.6 v 4.8 c 0,51.7 41.94,93.6 93.63,93.6 h 150.72 c 51.69,0 93.63,-41.9 93.63,-93.6 v -4.8" /></g><g
         transform="scale(1.30184)"
         id="g568"><path
           id="path570"
           style="fill:#f14359;fill-opacity:1;fill-rule:nonzero;stroke:none"
           d="m 9886,16201.6 c 0,-51.7 -41.94,-93.6 -93.63,-93.6 h -150.71 c -51.7,0 -93.64,41.9 -93.64,93.6 v 4.8 c 0,51.7 41.94,93.6 93.64,93.6 h 150.71 c 51.69,0 93.63,-41.9 93.63,-93.6 v -4.8" /></g><g
         transform="scale(1.30184)"
         id="g572"><path
           id="path574"
           style="fill:#f14359;fill-opacity:1;fill-rule:nonzero;stroke:none"
           d="m 10546.6,16201.6 c 0,-51.7 -41.9,-93.6 -93.6,-93.6 h -150.7 c -51.7,0 -93.7,41.9 -93.7,93.6 v 4.8 c 0,51.7 42,93.6 93.7,93.6 h 150.7 c 51.7,0 93.6,-41.9 93.6,-93.6 v -4.8" /></g><g
         transform="scale(1.23865)"
         id="g576"><path
           id="path578"
           style="fill:#dbdad8;fill-opacity:1;fill-rule:nonzero;stroke:none"
           d="m 10370.9,16094.1 c 0,-114 -92.5,-205.8 -206.6,-205.8 h -493.61 c -114.08,0 -206.6,91.8 -206.6,205.8 v 0 c 0,114.1 92.52,205.9 206.6,205.9 h 493.61 c 114.1,0 206.6,-91.8 206.6,-205.9 v 0" /></g></g></g></svg>
